<mxfile host="drawio-plugin" modified="2021-03-08T14:01:58.093Z" agent="5.0 (Macintosh; Intel Mac OS X 10_16_0) AppleWebKit/537.36 (KHTML, like Gecko) Chrome/84.0.4147.105 Safari/537.36" etag="XdGYdcvTZY55Y9hL13GC" version="13.7.9" type="embed"><diagram id="7hN9aNgrmeOghoA3LiAi" name="Page-1"><mxGraphModel dx="584" dy="601" grid="1" gridSize="10" guides="1" tooltips="1" connect="1" arrows="1" fold="1" page="1" pageScale="1" pageWidth="850" pageHeight="1100" background="#F1FAEE" math="0" shadow="0"><root><mxCell id="0"/><mxCell id="1" parent="0"/><mxCell id="Cb4yv7zZFqui-rtnIhjn-1" value="tb_users" style="shape=table;startSize=30;container=1;collapsible=1;childLayout=tableLayout;fixedRows=1;rowLines=0;fontStyle=1;align=center;resizeLast=1;fillColor=#A8DADC;strokeColor=#457B9D;fontColor=#1D3557;" parent="1" vertex="1"><mxGeometry x="80" y="150" width="180" height="280" as="geometry"/></mxCell><mxCell id="Cb4yv7zZFqui-rtnIhjn-2" value="" style="shape=partialRectangle;collapsible=0;dropTarget=0;pointerEvents=0;fillColor=none;top=0;left=0;bottom=1;right=0;points=[[0,0.5],[1,0.5]];portConstraint=eastwest;strokeColor=#457B9D;fontColor=#1D3557;" parent="Cb4yv7zZFqui-rtnIhjn-1" vertex="1"><mxGeometry y="30" width="180" height="30" as="geometry"/></mxCell><mxCell id="Cb4yv7zZFqui-rtnIhjn-3" value="PK" style="shape=partialRectangle;connectable=0;fillColor=none;top=0;left=0;bottom=0;right=0;fontStyle=1;overflow=hidden;strokeColor=#457B9D;fontColor=#1D3557;" parent="Cb4yv7zZFqui-rtnIhjn-2" vertex="1"><mxGeometry width="30" height="30" as="geometry"/></mxCell><mxCell id="Cb4yv7zZFqui-rtnIhjn-4" value="user_id" style="shape=partialRectangle;connectable=0;fillColor=none;top=0;left=0;bottom=0;right=0;align=left;spacingLeft=6;fontStyle=5;overflow=hidden;strokeColor=#457B9D;fontColor=#1D3557;" parent="Cb4yv7zZFqui-rtnIhjn-2" vertex="1"><mxGeometry x="30" width="150" height="30" as="geometry"/></mxCell><mxCell id="Cb4yv7zZFqui-rtnIhjn-8" value="" style="shape=partialRectangle;collapsible=0;dropTarget=0;pointerEvents=0;fillColor=none;top=0;left=0;bottom=0;right=0;points=[[0,0.5],[1,0.5]];portConstraint=eastwest;strokeColor=#457B9D;fontColor=#1D3557;" parent="Cb4yv7zZFqui-rtnIhjn-1" vertex="1"><mxGeometry y="60" width="180" height="30" as="geometry"/></mxCell><mxCell id="Cb4yv7zZFqui-rtnIhjn-9" value="" style="shape=partialRectangle;connectable=0;fillColor=none;top=0;left=0;bottom=0;right=0;editable=1;overflow=hidden;strokeColor=#457B9D;fontColor=#1D3557;" parent="Cb4yv7zZFqui-rtnIhjn-8" vertex="1"><mxGeometry width="30" height="30" as="geometry"/></mxCell><mxCell id="Cb4yv7zZFqui-rtnIhjn-10" value="email" style="shape=partialRectangle;connectable=0;fillColor=none;top=0;left=0;bottom=0;right=0;align=left;spacingLeft=6;overflow=hidden;strokeColor=#457B9D;fontColor=#1D3557;" parent="Cb4yv7zZFqui-rtnIhjn-8" vertex="1"><mxGeometry x="30" width="150" height="30" as="geometry"/></mxCell><mxCell id="Cb4yv7zZFqui-rtnIhjn-11" value="" style="shape=partialRectangle;collapsible=0;dropTarget=0;pointerEvents=0;fillColor=none;top=0;left=0;bottom=0;right=0;points=[[0,0.5],[1,0.5]];portConstraint=eastwest;strokeColor=#457B9D;fontColor=#1D3557;" parent="Cb4yv7zZFqui-rtnIhjn-1" vertex="1"><mxGeometry y="90" width="180" height="30" as="geometry"/></mxCell><mxCell id="Cb4yv7zZFqui-rtnIhjn-12" value="" style="shape=partialRectangle;connectable=0;fillColor=none;top=0;left=0;bottom=0;right=0;editable=1;overflow=hidden;strokeColor=#457B9D;fontColor=#1D3557;" parent="Cb4yv7zZFqui-rtnIhjn-11" vertex="1"><mxGeometry width="30" height="30" as="geometry"/></mxCell><mxCell id="Cb4yv7zZFqui-rtnIhjn-13" value="password" style="shape=partialRectangle;connectable=0;fillColor=none;top=0;left=0;bottom=0;right=0;align=left;spacingLeft=6;overflow=hidden;strokeColor=#457B9D;fontColor=#1D3557;" parent="Cb4yv7zZFqui-rtnIhjn-11" vertex="1"><mxGeometry x="30" width="150" height="30" as="geometry"/></mxCell><mxCell id="Cb4yv7zZFqui-rtnIhjn-5" value="" style="shape=partialRectangle;collapsible=0;dropTarget=0;pointerEvents=0;fillColor=none;top=0;left=0;bottom=0;right=0;points=[[0,0.5],[1,0.5]];portConstraint=eastwest;strokeColor=#457B9D;fontColor=#1D3557;" parent="Cb4yv7zZFqui-rtnIhjn-1" vertex="1"><mxGeometry y="120" width="180" height="30" as="geometry"/></mxCell><mxCell id="Cb4yv7zZFqui-rtnIhjn-6" value="" style="shape=partialRectangle;connectable=0;fillColor=none;top=0;left=0;bottom=0;right=0;editable=1;overflow=hidden;strokeColor=#457B9D;fontColor=#1D3557;" parent="Cb4yv7zZFqui-rtnIhjn-5" vertex="1"><mxGeometry width="30" height="30" as="geometry"/></mxCell><mxCell id="Cb4yv7zZFqui-rtnIhjn-7" value="fullname" style="shape=partialRectangle;connectable=0;fillColor=none;top=0;left=0;bottom=0;right=0;align=left;spacingLeft=6;overflow=hidden;strokeColor=#457B9D;fontColor=#1D3557;" parent="Cb4yv7zZFqui-rtnIhjn-5" vertex="1"><mxGeometry x="30" width="150" height="30" as="geometry"/></mxCell><mxCell id="Cb4yv7zZFqui-rtnIhjn-14" value="" style="shape=partialRectangle;collapsible=0;dropTarget=0;pointerEvents=0;fillColor=none;top=0;left=0;bottom=0;right=0;points=[[0,0.5],[1,0.5]];portConstraint=eastwest;strokeColor=#457B9D;fontColor=#1D3557;" parent="Cb4yv7zZFqui-rtnIhjn-1" vertex="1"><mxGeometry y="150" width="180" height="30" as="geometry"/></mxCell><mxCell id="Cb4yv7zZFqui-rtnIhjn-15" value="" style="shape=partialRectangle;connectable=0;fillColor=none;top=0;left=0;bottom=0;right=0;editable=1;overflow=hidden;strokeColor=#457B9D;fontColor=#1D3557;" parent="Cb4yv7zZFqui-rtnIhjn-14" vertex="1"><mxGeometry width="30" height="30" as="geometry"/></mxCell><mxCell id="Cb4yv7zZFqui-rtnIhjn-16" value="role" style="shape=partialRectangle;connectable=0;fillColor=none;top=0;left=0;bottom=0;right=0;align=left;spacingLeft=6;overflow=hidden;strokeColor=#457B9D;fontColor=#1D3557;" parent="Cb4yv7zZFqui-rtnIhjn-14" vertex="1"><mxGeometry x="30" width="150" height="30" as="geometry"/></mxCell><mxCell id="Cb4yv7zZFqui-rtnIhjn-17" value="" style="shape=partialRectangle;collapsible=0;dropTarget=0;pointerEvents=0;fillColor=none;top=0;left=0;bottom=0;right=0;points=[[0,0.5],[1,0.5]];portConstraint=eastwest;strokeColor=#457B9D;fontColor=#1D3557;" parent="Cb4yv7zZFqui-rtnIhjn-1" vertex="1"><mxGeometry y="180" width="180" height="30" as="geometry"/></mxCell><mxCell id="Cb4yv7zZFqui-rtnIhjn-18" value="" style="shape=partialRectangle;connectable=0;fillColor=none;top=0;left=0;bottom=0;right=0;editable=1;overflow=hidden;strokeColor=#457B9D;fontColor=#1D3557;" parent="Cb4yv7zZFqui-rtnIhjn-17" vertex="1"><mxGeometry width="30" height="30" as="geometry"/></mxCell><mxCell id="Cb4yv7zZFqui-rtnIhjn-19" value="status" style="shape=partialRectangle;connectable=0;fillColor=none;top=0;left=0;bottom=0;right=0;align=left;spacingLeft=6;overflow=hidden;strokeColor=#457B9D;fontColor=#1D3557;" parent="Cb4yv7zZFqui-rtnIhjn-17" vertex="1"><mxGeometry x="30" width="150" height="30" as="geometry"/></mxCell><mxCell id="Cb4yv7zZFqui-rtnIhjn-20" value="" style="shape=partialRectangle;collapsible=0;dropTarget=0;pointerEvents=0;fillColor=none;top=0;left=0;bottom=0;right=0;points=[[0,0.5],[1,0.5]];portConstraint=eastwest;strokeColor=#457B9D;fontColor=#1D3557;" parent="Cb4yv7zZFqui-rtnIhjn-1" vertex="1"><mxGeometry y="210" width="180" height="30" as="geometry"/></mxCell><mxCell id="Cb4yv7zZFqui-rtnIhjn-21" value="" style="shape=partialRectangle;connectable=0;fillColor=none;top=0;left=0;bottom=0;right=0;editable=1;overflow=hidden;strokeColor=#457B9D;fontColor=#1D3557;" parent="Cb4yv7zZFqui-rtnIhjn-20" vertex="1"><mxGeometry width="30" height="30" as="geometry"/></mxCell><mxCell id="Cb4yv7zZFqui-rtnIhjn-22" value="created_at" style="shape=partialRectangle;connectable=0;fillColor=none;top=0;left=0;bottom=0;right=0;align=left;spacingLeft=6;overflow=hidden;strokeColor=#457B9D;fontColor=#1D3557;" parent="Cb4yv7zZFqui-rtnIhjn-20" vertex="1"><mxGeometry x="30" width="150" height="30" as="geometry"/></mxCell><mxCell id="Cb4yv7zZFqui-rtnIhjn-23" value="" style="shape=partialRectangle;collapsible=0;dropTarget=0;pointerEvents=0;fillColor=none;top=0;left=0;bottom=0;right=0;points=[[0,0.5],[1,0.5]];portConstraint=eastwest;strokeColor=#457B9D;fontColor=#1D3557;" parent="Cb4yv7zZFqui-rtnIhjn-1" vertex="1"><mxGeometry y="240" width="180" height="30" as="geometry"/></mxCell><mxCell id="Cb4yv7zZFqui-rtnIhjn-24" value="" style="shape=partialRectangle;connectable=0;fillColor=none;top=0;left=0;bottom=0;right=0;editable=1;overflow=hidden;strokeColor=#457B9D;fontColor=#1D3557;" parent="Cb4yv7zZFqui-rtnIhjn-23" vertex="1"><mxGeometry width="30" height="30" as="geometry"/></mxCell><mxCell id="Cb4yv7zZFqui-rtnIhjn-25" value="updated_at" style="shape=partialRectangle;connectable=0;fillColor=none;top=0;left=0;bottom=0;right=0;align=left;spacingLeft=6;overflow=hidden;strokeColor=#457B9D;fontColor=#1D3557;" parent="Cb4yv7zZFqui-rtnIhjn-23" vertex="1"><mxGeometry x="30" width="150" height="30" as="geometry"/></mxCell><mxCell id="Cb4yv7zZFqui-rtnIhjn-26" value="tb_category" style="shape=table;startSize=30;container=1;collapsible=1;childLayout=tableLayout;fixedRows=1;rowLines=0;fontStyle=1;align=center;resizeLast=1;fillColor=#A8DADC;strokeColor=#457B9D;fontColor=#1D3557;" parent="1" vertex="1"><mxGeometry x="320" y="390" width="180" height="220" as="geometry"/></mxCell><mxCell id="Cb4yv7zZFqui-rtnIhjn-27" value="" style="shape=partialRectangle;collapsible=0;dropTarget=0;pointerEvents=0;fillColor=none;top=0;left=0;bottom=1;right=0;points=[[0,0.5],[1,0.5]];portConstraint=eastwest;strokeColor=#457B9D;fontColor=#1D3557;" parent="Cb4yv7zZFqui-rtnIhjn-26" vertex="1"><mxGeometry y="30" width="180" height="30" as="geometry"/></mxCell><mxCell id="Cb4yv7zZFqui-rtnIhjn-28" value="PK" style="shape=partialRectangle;connectable=0;fillColor=none;top=0;left=0;bottom=0;right=0;fontStyle=1;overflow=hidden;strokeColor=#457B9D;fontColor=#1D3557;" parent="Cb4yv7zZFqui-rtnIhjn-27" vertex="1"><mxGeometry width="30" height="30" as="geometry"/></mxCell><mxCell id="Cb4yv7zZFqui-rtnIhjn-29" value="cat_id" style="shape=partialRectangle;connectable=0;fillColor=none;top=0;left=0;bottom=0;right=0;align=left;spacingLeft=6;fontStyle=5;overflow=hidden;strokeColor=#457B9D;fontColor=#1D3557;" parent="Cb4yv7zZFqui-rtnIhjn-27" vertex="1"><mxGeometry x="30" width="150" height="30" as="geometry"/></mxCell><mxCell id="Cb4yv7zZFqui-rtnIhjn-30" value="" style="shape=partialRectangle;collapsible=0;dropTarget=0;pointerEvents=0;fillColor=none;top=0;left=0;bottom=0;right=0;points=[[0,0.5],[1,0.5]];portConstraint=eastwest;strokeColor=#457B9D;fontColor=#1D3557;" parent="Cb4yv7zZFqui-rtnIhjn-26" vertex="1"><mxGeometry y="60" width="180" height="30" as="geometry"/></mxCell><mxCell id="Cb4yv7zZFqui-rtnIhjn-31" value="" style="shape=partialRectangle;connectable=0;fillColor=none;top=0;left=0;bottom=0;right=0;editable=1;overflow=hidden;strokeColor=#457B9D;fontColor=#1D3557;" parent="Cb4yv7zZFqui-rtnIhjn-30" vertex="1"><mxGeometry width="30" height="30" as="geometry"/></mxCell><mxCell id="Cb4yv7zZFqui-rtnIhjn-32" value="name" style="shape=partialRectangle;connectable=0;fillColor=none;top=0;left=0;bottom=0;right=0;align=left;spacingLeft=6;overflow=hidden;strokeColor=#457B9D;fontColor=#1D3557;" parent="Cb4yv7zZFqui-rtnIhjn-30" vertex="1"><mxGeometry x="30" width="150" height="30" as="geometry"/></mxCell><mxCell id="Cb4yv7zZFqui-rtnIhjn-33" value="" style="shape=partialRectangle;collapsible=0;dropTarget=0;pointerEvents=0;fillColor=none;top=0;left=0;bottom=0;right=0;points=[[0,0.5],[1,0.5]];portConstraint=eastwest;strokeColor=#457B9D;fontColor=#1D3557;" parent="Cb4yv7zZFqui-rtnIhjn-26" vertex="1"><mxGeometry y="90" width="180" height="30" as="geometry"/></mxCell><mxCell id="Cb4yv7zZFqui-rtnIhjn-34" value="" style="shape=partialRectangle;connectable=0;fillColor=none;top=0;left=0;bottom=0;right=0;editable=1;overflow=hidden;strokeColor=#457B9D;fontColor=#1D3557;" parent="Cb4yv7zZFqui-rtnIhjn-33" vertex="1"><mxGeometry width="30" height="30" as="geometry"/></mxCell><mxCell id="Cb4yv7zZFqui-rtnIhjn-35" value="description" style="shape=partialRectangle;connectable=0;fillColor=none;top=0;left=0;bottom=0;right=0;align=left;spacingLeft=6;overflow=hidden;strokeColor=#457B9D;fontColor=#1D3557;" parent="Cb4yv7zZFqui-rtnIhjn-33" vertex="1"><mxGeometry x="30" width="150" height="30" as="geometry"/></mxCell><mxCell id="Cb4yv7zZFqui-rtnIhjn-36" value="" style="shape=partialRectangle;collapsible=0;dropTarget=0;pointerEvents=0;fillColor=none;top=0;left=0;bottom=0;right=0;points=[[0,0.5],[1,0.5]];portConstraint=eastwest;strokeColor=#457B9D;fontColor=#1D3557;" parent="Cb4yv7zZFqui-rtnIhjn-26" vertex="1"><mxGeometry y="120" width="180" height="30" as="geometry"/></mxCell><mxCell id="Cb4yv7zZFqui-rtnIhjn-37" value="" style="shape=partialRectangle;connectable=0;fillColor=none;top=0;left=0;bottom=0;right=0;editable=1;overflow=hidden;strokeColor=#457B9D;fontColor=#1D3557;" parent="Cb4yv7zZFqui-rtnIhjn-36" vertex="1"><mxGeometry width="30" height="30" as="geometry"/></mxCell><mxCell id="Cb4yv7zZFqui-rtnIhjn-38" value="created_at" style="shape=partialRectangle;connectable=0;fillColor=none;top=0;left=0;bottom=0;right=0;align=left;spacingLeft=6;overflow=hidden;strokeColor=#457B9D;fontColor=#1D3557;" parent="Cb4yv7zZFqui-rtnIhjn-36" vertex="1"><mxGeometry x="30" width="150" height="30" as="geometry"/></mxCell><mxCell id="0QHwXdA0qR0R5OQeVKJc-8" value="" style="shape=partialRectangle;collapsible=0;dropTarget=0;pointerEvents=0;fillColor=none;top=0;left=0;bottom=0;right=0;points=[[0,0.5],[1,0.5]];portConstraint=eastwest;strokeColor=#457B9D;fontColor=#1D3557;" parent="Cb4yv7zZFqui-rtnIhjn-26" vertex="1"><mxGeometry y="150" width="180" height="30" as="geometry"/></mxCell><mxCell id="0QHwXdA0qR0R5OQeVKJc-9" value="" style="shape=partialRectangle;connectable=0;fillColor=none;top=0;left=0;bottom=0;right=0;editable=1;overflow=hidden;strokeColor=#457B9D;fontColor=#1D3557;" parent="0QHwXdA0qR0R5OQeVKJc-8" vertex="1"><mxGeometry width="30" height="30" as="geometry"/></mxCell><mxCell id="0QHwXdA0qR0R5OQeVKJc-10" value="updated_at" style="shape=partialRectangle;connectable=0;fillColor=none;top=0;left=0;bottom=0;right=0;align=left;spacingLeft=6;overflow=hidden;strokeColor=#457B9D;fontColor=#1D3557;" parent="0QHwXdA0qR0R5OQeVKJc-8" vertex="1"><mxGeometry x="30" width="150" height="30" as="geometry"/></mxCell><mxCell id="GuEDAPWdOgB3gn5zNmbN-1" value="" style="shape=partialRectangle;collapsible=0;dropTarget=0;pointerEvents=0;fillColor=none;top=0;left=0;bottom=0;right=0;points=[[0,0.5],[1,0.5]];portConstraint=eastwest;strokeColor=#457B9D;fontColor=#1D3557;" parent="Cb4yv7zZFqui-rtnIhjn-26" vertex="1"><mxGeometry y="180" width="180" height="30" as="geometry"/></mxCell><mxCell id="GuEDAPWdOgB3gn5zNmbN-2" value="FK" style="shape=partialRectangle;connectable=0;fillColor=none;top=0;left=0;bottom=0;right=0;fontStyle=0;overflow=hidden;strokeColor=#457B9D;fontColor=#1D3557;" parent="GuEDAPWdOgB3gn5zNmbN-1" vertex="1"><mxGeometry width="30" height="30" as="geometry"/></mxCell><mxCell id="GuEDAPWdOgB3gn5zNmbN-3" value="teacher_id" style="shape=partialRectangle;connectable=0;fillColor=none;top=0;left=0;bottom=0;right=0;align=left;spacingLeft=6;fontStyle=0;overflow=hidden;strokeColor=#457B9D;fontColor=#1D3557;" parent="GuEDAPWdOgB3gn5zNmbN-1" vertex="1"><mxGeometry x="30" width="150" height="30" as="geometry"/></mxCell><mxCell id="Cb4yv7zZFqui-rtnIhjn-39" value="tb_subjects" style="shape=table;startSize=30;container=1;collapsible=1;childLayout=tableLayout;fixedRows=1;rowLines=0;fontStyle=1;align=center;resizeLast=1;fillColor=#A8DADC;strokeColor=#457B9D;fontColor=#1D3557;" parent="1" vertex="1"><mxGeometry x="540" y="230" width="180" height="390" as="geometry"/></mxCell><mxCell id="Cb4yv7zZFqui-rtnIhjn-40" value="" style="shape=partialRectangle;collapsible=0;dropTarget=0;pointerEvents=0;fillColor=none;top=0;left=0;bottom=1;right=0;points=[[0,0.5],[1,0.5]];portConstraint=eastwest;strokeColor=#457B9D;fontColor=#1D3557;" parent="Cb4yv7zZFqui-rtnIhjn-39" vertex="1"><mxGeometry y="30" width="180" height="30" as="geometry"/></mxCell><mxCell id="Cb4yv7zZFqui-rtnIhjn-41" value="PK" style="shape=partialRectangle;connectable=0;fillColor=none;top=0;left=0;bottom=0;right=0;fontStyle=1;overflow=hidden;strokeColor=#457B9D;fontColor=#1D3557;" parent="Cb4yv7zZFqui-rtnIhjn-40" vertex="1"><mxGeometry width="30" height="30" as="geometry"/></mxCell><mxCell id="Cb4yv7zZFqui-rtnIhjn-42" value="sub_id" style="shape=partialRectangle;connectable=0;fillColor=none;top=0;left=0;bottom=0;right=0;align=left;spacingLeft=6;fontStyle=5;overflow=hidden;strokeColor=#457B9D;fontColor=#1D3557;" parent="Cb4yv7zZFqui-rtnIhjn-40" vertex="1"><mxGeometry x="30" width="150" height="30" as="geometry"/></mxCell><mxCell id="Cb4yv7zZFqui-rtnIhjn-43" value="" style="shape=partialRectangle;collapsible=0;dropTarget=0;pointerEvents=0;fillColor=none;top=0;left=0;bottom=0;right=0;points=[[0,0.5],[1,0.5]];portConstraint=eastwest;strokeColor=#457B9D;fontColor=#1D3557;" parent="Cb4yv7zZFqui-rtnIhjn-39" vertex="1"><mxGeometry y="60" width="180" height="30" as="geometry"/></mxCell><mxCell id="Cb4yv7zZFqui-rtnIhjn-44" value="" style="shape=partialRectangle;connectable=0;fillColor=none;top=0;left=0;bottom=0;right=0;editable=1;overflow=hidden;strokeColor=#457B9D;fontColor=#1D3557;" parent="Cb4yv7zZFqui-rtnIhjn-43" vertex="1"><mxGeometry width="30" height="30" as="geometry"/></mxCell><mxCell id="Cb4yv7zZFqui-rtnIhjn-45" value="title" style="shape=partialRectangle;connectable=0;fillColor=none;top=0;left=0;bottom=0;right=0;align=left;spacingLeft=6;overflow=hidden;strokeColor=#457B9D;fontColor=#1D3557;" parent="Cb4yv7zZFqui-rtnIhjn-43" vertex="1"><mxGeometry x="30" width="150" height="30" as="geometry"/></mxCell><mxCell id="Cb4yv7zZFqui-rtnIhjn-46" value="" style="shape=partialRectangle;collapsible=0;dropTarget=0;pointerEvents=0;fillColor=none;top=0;left=0;bottom=0;right=0;points=[[0,0.5],[1,0.5]];portConstraint=eastwest;strokeColor=#457B9D;fontColor=#1D3557;" parent="Cb4yv7zZFqui-rtnIhjn-39" vertex="1"><mxGeometry y="90" width="180" height="30" as="geometry"/></mxCell><mxCell id="Cb4yv7zZFqui-rtnIhjn-47" value="" style="shape=partialRectangle;connectable=0;fillColor=none;top=0;left=0;bottom=0;right=0;editable=1;overflow=hidden;strokeColor=#457B9D;fontColor=#1D3557;" parent="Cb4yv7zZFqui-rtnIhjn-46" vertex="1"><mxGeometry width="30" height="30" as="geometry"/></mxCell><mxCell id="Cb4yv7zZFqui-rtnIhjn-48" value="description" style="shape=partialRectangle;connectable=0;fillColor=none;top=0;left=0;bottom=0;right=0;align=left;spacingLeft=6;overflow=hidden;strokeColor=#457B9D;fontColor=#1D3557;" parent="Cb4yv7zZFqui-rtnIhjn-46" vertex="1"><mxGeometry x="30" width="150" height="30" as="geometry"/></mxCell><mxCell id="Cb4yv7zZFqui-rtnIhjn-49" value="" style="shape=partialRectangle;collapsible=0;dropTarget=0;pointerEvents=0;fillColor=none;top=0;left=0;bottom=0;right=0;points=[[0,0.5],[1,0.5]];portConstraint=eastwest;strokeColor=#457B9D;fontColor=#1D3557;" parent="Cb4yv7zZFqui-rtnIhjn-39" vertex="1"><mxGeometry y="120" width="180" height="30" as="geometry"/></mxCell><mxCell id="Cb4yv7zZFqui-rtnIhjn-50" value="" style="shape=partialRectangle;connectable=0;fillColor=none;top=0;left=0;bottom=0;right=0;editable=1;overflow=hidden;strokeColor=#457B9D;fontColor=#1D3557;" parent="Cb4yv7zZFqui-rtnIhjn-49" vertex="1"><mxGeometry width="30" height="30" as="geometry"/></mxCell><mxCell id="Cb4yv7zZFqui-rtnIhjn-51" value="level" style="shape=partialRectangle;connectable=0;fillColor=none;top=0;left=0;bottom=0;right=0;align=left;spacingLeft=6;overflow=hidden;strokeColor=#457B9D;fontColor=#1D3557;" parent="Cb4yv7zZFqui-rtnIhjn-49" vertex="1"><mxGeometry x="30" width="150" height="30" as="geometry"/></mxCell><mxCell id="Cb4yv7zZFqui-rtnIhjn-52" value="" style="shape=partialRectangle;collapsible=0;dropTarget=0;pointerEvents=0;fillColor=none;top=0;left=0;bottom=0;right=0;points=[[0,0.5],[1,0.5]];portConstraint=eastwest;strokeColor=#457B9D;fontColor=#1D3557;" parent="Cb4yv7zZFqui-rtnIhjn-39" vertex="1"><mxGeometry y="150" width="180" height="30" as="geometry"/></mxCell><mxCell id="Cb4yv7zZFqui-rtnIhjn-53" value="" style="shape=partialRectangle;connectable=0;fillColor=none;top=0;left=0;bottom=0;right=0;editable=1;overflow=hidden;strokeColor=#457B9D;fontColor=#1D3557;" parent="Cb4yv7zZFqui-rtnIhjn-52" vertex="1"><mxGeometry width="30" height="30" as="geometry"/></mxCell><mxCell id="Cb4yv7zZFqui-rtnIhjn-54" value="give_minute" style="shape=partialRectangle;connectable=0;fillColor=none;top=0;left=0;bottom=0;right=0;align=left;spacingLeft=6;overflow=hidden;strokeColor=#457B9D;fontColor=#1D3557;" parent="Cb4yv7zZFqui-rtnIhjn-52" vertex="1"><mxGeometry x="30" width="150" height="30" as="geometry"/></mxCell><mxCell id="Cb4yv7zZFqui-rtnIhjn-55" value="" style="shape=partialRectangle;collapsible=0;dropTarget=0;pointerEvents=0;fillColor=none;top=0;left=0;bottom=0;right=0;points=[[0,0.5],[1,0.5]];portConstraint=eastwest;strokeColor=#457B9D;fontColor=#1D3557;" parent="Cb4yv7zZFqui-rtnIhjn-39" vertex="1"><mxGeometry y="180" width="180" height="30" as="geometry"/></mxCell><mxCell id="Cb4yv7zZFqui-rtnIhjn-56" value="" style="shape=partialRectangle;connectable=0;fillColor=none;top=0;left=0;bottom=0;right=0;editable=1;overflow=hidden;strokeColor=#457B9D;fontColor=#1D3557;" parent="Cb4yv7zZFqui-rtnIhjn-55" vertex="1"><mxGeometry width="30" height="30" as="geometry"/></mxCell><mxCell id="Cb4yv7zZFqui-rtnIhjn-57" value="pass_percent" style="shape=partialRectangle;connectable=0;fillColor=none;top=0;left=0;bottom=0;right=0;align=left;spacingLeft=6;overflow=hidden;strokeColor=#457B9D;fontColor=#1D3557;" parent="Cb4yv7zZFqui-rtnIhjn-55" vertex="1"><mxGeometry x="30" width="150" height="30" as="geometry"/></mxCell><mxCell id="Cb4yv7zZFqui-rtnIhjn-64" value="" style="shape=partialRectangle;collapsible=0;dropTarget=0;pointerEvents=0;fillColor=none;top=0;left=0;bottom=0;right=0;points=[[0,0.5],[1,0.5]];portConstraint=eastwest;strokeColor=#457B9D;fontColor=#1D3557;" parent="Cb4yv7zZFqui-rtnIhjn-39" vertex="1"><mxGeometry y="210" width="180" height="30" as="geometry"/></mxCell><mxCell id="Cb4yv7zZFqui-rtnIhjn-65" value="" style="shape=partialRectangle;connectable=0;fillColor=none;top=0;left=0;bottom=0;right=0;editable=1;overflow=hidden;strokeColor=#457B9D;fontColor=#1D3557;" parent="Cb4yv7zZFqui-rtnIhjn-64" vertex="1"><mxGeometry width="30" height="30" as="geometry"/></mxCell><mxCell id="Cb4yv7zZFqui-rtnIhjn-66" value="use_count" style="shape=partialRectangle;connectable=0;fillColor=none;top=0;left=0;bottom=0;right=0;align=left;spacingLeft=6;overflow=hidden;strokeColor=#457B9D;fontColor=#1D3557;" parent="Cb4yv7zZFqui-rtnIhjn-64" vertex="1"><mxGeometry x="30" width="150" height="30" as="geometry"/></mxCell><mxCell id="Cb4yv7zZFqui-rtnIhjn-67" value="" style="shape=partialRectangle;collapsible=0;dropTarget=0;pointerEvents=0;fillColor=none;top=0;left=0;bottom=0;right=0;points=[[0,0.5],[1,0.5]];portConstraint=eastwest;strokeColor=#457B9D;fontColor=#1D3557;" parent="Cb4yv7zZFqui-rtnIhjn-39" vertex="1"><mxGeometry y="240" width="180" height="30" as="geometry"/></mxCell><mxCell id="Cb4yv7zZFqui-rtnIhjn-68" value="" style="shape=partialRectangle;connectable=0;fillColor=none;top=0;left=0;bottom=0;right=0;editable=1;overflow=hidden;strokeColor=#457B9D;fontColor=#1D3557;" parent="Cb4yv7zZFqui-rtnIhjn-67" vertex="1"><mxGeometry width="30" height="30" as="geometry"/></mxCell><mxCell id="Cb4yv7zZFqui-rtnIhjn-69" value="status" style="shape=partialRectangle;connectable=0;fillColor=none;top=0;left=0;bottom=0;right=0;align=left;spacingLeft=6;overflow=hidden;strokeColor=#457B9D;fontColor=#1D3557;" parent="Cb4yv7zZFqui-rtnIhjn-67" vertex="1"><mxGeometry x="30" width="150" height="30" as="geometry"/></mxCell><mxCell id="0QHwXdA0qR0R5OQeVKJc-14" value="" style="shape=partialRectangle;collapsible=0;dropTarget=0;pointerEvents=0;fillColor=none;top=0;left=0;bottom=0;right=0;points=[[0,0.5],[1,0.5]];portConstraint=eastwest;strokeColor=#457B9D;fontColor=#1D3557;" parent="Cb4yv7zZFqui-rtnIhjn-39" vertex="1"><mxGeometry y="270" width="180" height="30" as="geometry"/></mxCell><mxCell id="0QHwXdA0qR0R5OQeVKJc-15" value="" style="shape=partialRectangle;connectable=0;fillColor=none;top=0;left=0;bottom=0;right=0;editable=1;overflow=hidden;strokeColor=#457B9D;fontColor=#1D3557;" parent="0QHwXdA0qR0R5OQeVKJc-14" vertex="1"><mxGeometry width="30" height="30" as="geometry"/></mxCell><mxCell id="0QHwXdA0qR0R5OQeVKJc-16" value="created_at" style="shape=partialRectangle;connectable=0;fillColor=none;top=0;left=0;bottom=0;right=0;align=left;spacingLeft=6;overflow=hidden;strokeColor=#457B9D;fontColor=#1D3557;" parent="0QHwXdA0qR0R5OQeVKJc-14" vertex="1"><mxGeometry x="30" width="150" height="30" as="geometry"/></mxCell><mxCell id="0QHwXdA0qR0R5OQeVKJc-11" value="" style="shape=partialRectangle;collapsible=0;dropTarget=0;pointerEvents=0;fillColor=none;top=0;left=0;bottom=0;right=0;points=[[0,0.5],[1,0.5]];portConstraint=eastwest;strokeColor=#457B9D;fontColor=#1D3557;" parent="Cb4yv7zZFqui-rtnIhjn-39" vertex="1"><mxGeometry y="300" width="180" height="30" as="geometry"/></mxCell><mxCell id="0QHwXdA0qR0R5OQeVKJc-12" value="" style="shape=partialRectangle;connectable=0;fillColor=none;top=0;left=0;bottom=0;right=0;editable=1;overflow=hidden;strokeColor=#457B9D;fontColor=#1D3557;" parent="0QHwXdA0qR0R5OQeVKJc-11" vertex="1"><mxGeometry width="30" height="30" as="geometry"/></mxCell><mxCell id="0QHwXdA0qR0R5OQeVKJc-13" value="updated_at" style="shape=partialRectangle;connectable=0;fillColor=none;top=0;left=0;bottom=0;right=0;align=left;spacingLeft=6;overflow=hidden;strokeColor=#457B9D;fontColor=#1D3557;" parent="0QHwXdA0qR0R5OQeVKJc-11" vertex="1"><mxGeometry x="30" width="150" height="30" as="geometry"/></mxCell><mxCell id="Cb4yv7zZFqui-rtnIhjn-82" value="" style="shape=partialRectangle;collapsible=0;dropTarget=0;pointerEvents=0;fillColor=none;top=0;left=0;bottom=0;right=0;points=[[0,0.5],[1,0.5]];portConstraint=eastwest;strokeColor=#457B9D;fontColor=#1D3557;" parent="Cb4yv7zZFqui-rtnIhjn-39" vertex="1"><mxGeometry y="330" width="180" height="30" as="geometry"/></mxCell><mxCell id="Cb4yv7zZFqui-rtnIhjn-83" value="FK" style="shape=partialRectangle;connectable=0;fillColor=none;top=0;left=0;bottom=0;right=0;fontStyle=0;overflow=hidden;strokeColor=#457B9D;fontColor=#1D3557;" parent="Cb4yv7zZFqui-rtnIhjn-82" vertex="1"><mxGeometry width="30" height="30" as="geometry"/></mxCell><mxCell id="Cb4yv7zZFqui-rtnIhjn-84" value="cat_id" style="shape=partialRectangle;connectable=0;fillColor=none;top=0;left=0;bottom=0;right=0;align=left;spacingLeft=6;fontStyle=0;overflow=hidden;strokeColor=#457B9D;fontColor=#1D3557;" parent="Cb4yv7zZFqui-rtnIhjn-82" vertex="1"><mxGeometry x="30" width="150" height="30" as="geometry"/></mxCell><mxCell id="Cb4yv7zZFqui-rtnIhjn-88" value="" style="shape=partialRectangle;collapsible=0;dropTarget=0;pointerEvents=0;fillColor=none;top=0;left=0;bottom=0;right=0;points=[[0,0.5],[1,0.5]];portConstraint=eastwest;strokeColor=#457B9D;fontColor=#1D3557;" parent="Cb4yv7zZFqui-rtnIhjn-39" vertex="1"><mxGeometry y="360" width="180" height="30" as="geometry"/></mxCell><mxCell id="Cb4yv7zZFqui-rtnIhjn-89" value="FK" style="shape=partialRectangle;connectable=0;fillColor=none;top=0;left=0;bottom=0;right=0;fontStyle=0;overflow=hidden;strokeColor=#457B9D;fontColor=#1D3557;" parent="Cb4yv7zZFqui-rtnIhjn-88" vertex="1"><mxGeometry width="30" height="30" as="geometry"/></mxCell><mxCell id="Cb4yv7zZFqui-rtnIhjn-90" value="teacher_id" style="shape=partialRectangle;connectable=0;fillColor=none;top=0;left=0;bottom=0;right=0;align=left;spacingLeft=6;fontStyle=0;overflow=hidden;strokeColor=#457B9D;fontColor=#1D3557;" parent="Cb4yv7zZFqui-rtnIhjn-88" vertex="1"><mxGeometry x="30" width="150" height="30" as="geometry"/></mxCell><mxCell id="Cb4yv7zZFqui-rtnIhjn-93" style="edgeStyle=orthogonalEdgeStyle;rounded=0;orthogonalLoop=1;jettySize=auto;html=1;entryX=0;entryY=0.5;entryDx=0;entryDy=0;strokeColor=#457B9D;fontColor=#1D3557;labelBackgroundColor=#F1FAEE;" parent="1" source="Cb4yv7zZFqui-rtnIhjn-88" target="Cb4yv7zZFqui-rtnIhjn-2" edge="1"><mxGeometry relative="1" as="geometry"><Array as="points"><mxPoint x="630" y="650"/><mxPoint x="60" y="650"/><mxPoint x="60" y="195"/></Array></mxGeometry></mxCell><mxCell id="Cb4yv7zZFqui-rtnIhjn-94" value="tb_questions" style="shape=table;startSize=30;container=1;collapsible=1;childLayout=tableLayout;fixedRows=1;rowLines=0;fontStyle=1;align=center;resizeLast=1;fillColor=#A8DADC;strokeColor=#457B9D;fontColor=#1D3557;" parent="1" vertex="1"><mxGeometry x="760" y="30" width="180" height="730" as="geometry"/></mxCell><mxCell id="Cb4yv7zZFqui-rtnIhjn-95" value="" style="shape=partialRectangle;collapsible=0;dropTarget=0;pointerEvents=0;fillColor=none;top=0;left=0;bottom=1;right=0;points=[[0,0.5],[1,0.5]];portConstraint=eastwest;strokeColor=#457B9D;fontColor=#1D3557;" parent="Cb4yv7zZFqui-rtnIhjn-94" vertex="1"><mxGeometry y="30" width="180" height="30" as="geometry"/></mxCell><mxCell id="Cb4yv7zZFqui-rtnIhjn-96" value="PK" style="shape=partialRectangle;connectable=0;fillColor=none;top=0;left=0;bottom=0;right=0;fontStyle=1;overflow=hidden;strokeColor=#457B9D;fontColor=#1D3557;" parent="Cb4yv7zZFqui-rtnIhjn-95" vertex="1"><mxGeometry width="30" height="30" as="geometry"/></mxCell><mxCell id="Cb4yv7zZFqui-rtnIhjn-97" value="q_id" style="shape=partialRectangle;connectable=0;fillColor=none;top=0;left=0;bottom=0;right=0;align=left;spacingLeft=6;fontStyle=5;overflow=hidden;strokeColor=#457B9D;fontColor=#1D3557;" parent="Cb4yv7zZFqui-rtnIhjn-95" vertex="1"><mxGeometry x="30" width="150" height="30" as="geometry"/></mxCell><mxCell id="Cb4yv7zZFqui-rtnIhjn-98" value="" style="shape=partialRectangle;collapsible=0;dropTarget=0;pointerEvents=0;fillColor=none;top=0;left=0;bottom=0;right=0;points=[[0,0.5],[1,0.5]];portConstraint=eastwest;strokeColor=#457B9D;fontColor=#1D3557;" parent="Cb4yv7zZFqui-rtnIhjn-94" vertex="1"><mxGeometry y="60" width="180" height="30" as="geometry"/></mxCell><mxCell id="Cb4yv7zZFqui-rtnIhjn-99" value="" style="shape=partialRectangle;connectable=0;fillColor=none;top=0;left=0;bottom=0;right=0;editable=1;overflow=hidden;strokeColor=#457B9D;fontColor=#1D3557;" parent="Cb4yv7zZFqui-rtnIhjn-98" vertex="1"><mxGeometry width="30" height="30" as="geometry"/></mxCell><mxCell id="Cb4yv7zZFqui-rtnIhjn-100" value="q_no" style="shape=partialRectangle;connectable=0;fillColor=none;top=0;left=0;bottom=0;right=0;align=left;spacingLeft=6;overflow=hidden;strokeColor=#457B9D;fontColor=#1D3557;" parent="Cb4yv7zZFqui-rtnIhjn-98" vertex="1"><mxGeometry x="30" width="150" height="30" as="geometry"/></mxCell><mxCell id="Cb4yv7zZFqui-rtnIhjn-155" value="" style="shape=partialRectangle;collapsible=0;dropTarget=0;pointerEvents=0;fillColor=none;top=0;left=0;bottom=0;right=0;points=[[0,0.5],[1,0.5]];portConstraint=eastwest;strokeColor=#457B9D;fontColor=#1D3557;" parent="Cb4yv7zZFqui-rtnIhjn-94" vertex="1"><mxGeometry y="90" width="180" height="30" as="geometry"/></mxCell><mxCell id="Cb4yv7zZFqui-rtnIhjn-156" value="" style="shape=partialRectangle;connectable=0;fillColor=none;top=0;left=0;bottom=0;right=0;editable=1;overflow=hidden;strokeColor=#457B9D;fontColor=#1D3557;" parent="Cb4yv7zZFqui-rtnIhjn-155" vertex="1"><mxGeometry width="30" height="30" as="geometry"/></mxCell><mxCell id="Cb4yv7zZFqui-rtnIhjn-157" value="q_title" style="shape=partialRectangle;connectable=0;fillColor=none;top=0;left=0;bottom=0;right=0;align=left;spacingLeft=6;overflow=hidden;strokeColor=#457B9D;fontColor=#1D3557;" parent="Cb4yv7zZFqui-rtnIhjn-155" vertex="1"><mxGeometry x="30" width="150" height="30" as="geometry"/></mxCell><mxCell id="Cb4yv7zZFqui-rtnIhjn-158" value="" style="shape=partialRectangle;collapsible=0;dropTarget=0;pointerEvents=0;fillColor=none;top=0;left=0;bottom=0;right=0;points=[[0,0.5],[1,0.5]];portConstraint=eastwest;strokeColor=#457B9D;fontColor=#1D3557;" parent="Cb4yv7zZFqui-rtnIhjn-94" vertex="1"><mxGeometry y="120" width="180" height="30" as="geometry"/></mxCell><mxCell id="Cb4yv7zZFqui-rtnIhjn-159" value="" style="shape=partialRectangle;connectable=0;fillColor=none;top=0;left=0;bottom=0;right=0;editable=1;overflow=hidden;strokeColor=#457B9D;fontColor=#1D3557;" parent="Cb4yv7zZFqui-rtnIhjn-158" vertex="1"><mxGeometry width="30" height="30" as="geometry"/></mxCell><mxCell id="Cb4yv7zZFqui-rtnIhjn-160" value="q_desc" style="shape=partialRectangle;connectable=0;fillColor=none;top=0;left=0;bottom=0;right=0;align=left;spacingLeft=6;overflow=hidden;strokeColor=#457B9D;fontColor=#1D3557;" parent="Cb4yv7zZFqui-rtnIhjn-158" vertex="1"><mxGeometry x="30" width="150" height="30" as="geometry"/></mxCell><mxCell id="Cb4yv7zZFqui-rtnIhjn-101" value="" style="shape=partialRectangle;collapsible=0;dropTarget=0;pointerEvents=0;fillColor=none;top=0;left=0;bottom=0;right=0;points=[[0,0.5],[1,0.5]];portConstraint=eastwest;strokeColor=#457B9D;fontColor=#1D3557;" parent="Cb4yv7zZFqui-rtnIhjn-94" vertex="1"><mxGeometry y="150" width="180" height="30" as="geometry"/></mxCell><mxCell id="Cb4yv7zZFqui-rtnIhjn-102" value="" style="shape=partialRectangle;connectable=0;fillColor=none;top=0;left=0;bottom=0;right=0;editable=1;overflow=hidden;strokeColor=#457B9D;fontColor=#1D3557;" parent="Cb4yv7zZFqui-rtnIhjn-101" vertex="1"><mxGeometry width="30" height="30" as="geometry"/></mxCell><mxCell id="Cb4yv7zZFqui-rtnIhjn-103" value="q_difficulty" style="shape=partialRectangle;connectable=0;fillColor=none;top=0;left=0;bottom=0;right=0;align=left;spacingLeft=6;overflow=hidden;strokeColor=#457B9D;fontColor=#1D3557;" parent="Cb4yv7zZFqui-rtnIhjn-101" vertex="1"><mxGeometry x="30" width="150" height="30" as="geometry"/></mxCell><mxCell id="Cb4yv7zZFqui-rtnIhjn-104" value="" style="shape=partialRectangle;collapsible=0;dropTarget=0;pointerEvents=0;fillColor=none;top=0;left=0;bottom=0;right=0;points=[[0,0.5],[1,0.5]];portConstraint=eastwest;strokeColor=#457B9D;fontColor=#1D3557;" parent="Cb4yv7zZFqui-rtnIhjn-94" vertex="1"><mxGeometry y="180" width="180" height="30" as="geometry"/></mxCell><mxCell id="Cb4yv7zZFqui-rtnIhjn-105" value="" style="shape=partialRectangle;connectable=0;fillColor=none;top=0;left=0;bottom=0;right=0;editable=1;overflow=hidden;strokeColor=#457B9D;fontColor=#1D3557;" parent="Cb4yv7zZFqui-rtnIhjn-104" vertex="1"><mxGeometry width="30" height="30" as="geometry"/></mxCell><mxCell id="Cb4yv7zZFqui-rtnIhjn-106" value="q_answer_type" style="shape=partialRectangle;connectable=0;fillColor=none;top=0;left=0;bottom=0;right=0;align=left;spacingLeft=6;overflow=hidden;strokeColor=#457B9D;fontColor=#1D3557;" parent="Cb4yv7zZFqui-rtnIhjn-104" vertex="1"><mxGeometry x="30" width="150" height="30" as="geometry"/></mxCell><mxCell id="Cb4yv7zZFqui-rtnIhjn-107" value="" style="shape=partialRectangle;collapsible=0;dropTarget=0;pointerEvents=0;fillColor=none;top=0;left=0;bottom=0;right=0;points=[[0,0.5],[1,0.5]];portConstraint=eastwest;strokeColor=#457B9D;fontColor=#1D3557;" parent="Cb4yv7zZFqui-rtnIhjn-94" vertex="1"><mxGeometry y="210" width="180" height="30" as="geometry"/></mxCell><mxCell id="Cb4yv7zZFqui-rtnIhjn-108" value="" style="shape=partialRectangle;connectable=0;fillColor=none;top=0;left=0;bottom=0;right=0;editable=1;overflow=hidden;strokeColor=#457B9D;fontColor=#1D3557;" parent="Cb4yv7zZFqui-rtnIhjn-107" vertex="1"><mxGeometry width="30" height="30" as="geometry"/></mxCell><mxCell id="Cb4yv7zZFqui-rtnIhjn-109" value="q_sel1" style="shape=partialRectangle;connectable=0;fillColor=none;top=0;left=0;bottom=0;right=0;align=left;spacingLeft=6;overflow=hidden;strokeColor=#457B9D;fontColor=#1D3557;" parent="Cb4yv7zZFqui-rtnIhjn-107" vertex="1"><mxGeometry x="30" width="150" height="30" as="geometry"/></mxCell><mxCell id="Cb4yv7zZFqui-rtnIhjn-110" value="" style="shape=partialRectangle;collapsible=0;dropTarget=0;pointerEvents=0;fillColor=none;top=0;left=0;bottom=0;right=0;points=[[0,0.5],[1,0.5]];portConstraint=eastwest;strokeColor=#457B9D;fontColor=#1D3557;" parent="Cb4yv7zZFqui-rtnIhjn-94" vertex="1"><mxGeometry y="240" width="180" height="30" as="geometry"/></mxCell><mxCell id="Cb4yv7zZFqui-rtnIhjn-111" value="" style="shape=partialRectangle;connectable=0;fillColor=none;top=0;left=0;bottom=0;right=0;editable=1;overflow=hidden;strokeColor=#457B9D;fontColor=#1D3557;" parent="Cb4yv7zZFqui-rtnIhjn-110" vertex="1"><mxGeometry width="30" height="30" as="geometry"/></mxCell><mxCell id="Cb4yv7zZFqui-rtnIhjn-112" value="q_sel2" style="shape=partialRectangle;connectable=0;fillColor=none;top=0;left=0;bottom=0;right=0;align=left;spacingLeft=6;overflow=hidden;strokeColor=#457B9D;fontColor=#1D3557;" parent="Cb4yv7zZFqui-rtnIhjn-110" vertex="1"><mxGeometry x="30" width="150" height="30" as="geometry"/></mxCell><mxCell id="Cb4yv7zZFqui-rtnIhjn-113" value="" style="shape=partialRectangle;collapsible=0;dropTarget=0;pointerEvents=0;fillColor=none;top=0;left=0;bottom=0;right=0;points=[[0,0.5],[1,0.5]];portConstraint=eastwest;strokeColor=#457B9D;fontColor=#1D3557;" parent="Cb4yv7zZFqui-rtnIhjn-94" vertex="1"><mxGeometry y="270" width="180" height="30" as="geometry"/></mxCell><mxCell id="Cb4yv7zZFqui-rtnIhjn-114" value="" style="shape=partialRectangle;connectable=0;fillColor=none;top=0;left=0;bottom=0;right=0;editable=1;overflow=hidden;strokeColor=#457B9D;fontColor=#1D3557;" parent="Cb4yv7zZFqui-rtnIhjn-113" vertex="1"><mxGeometry width="30" height="30" as="geometry"/></mxCell><mxCell id="Cb4yv7zZFqui-rtnIhjn-115" value="q_sel3" style="shape=partialRectangle;connectable=0;fillColor=none;top=0;left=0;bottom=0;right=0;align=left;spacingLeft=6;overflow=hidden;strokeColor=#457B9D;fontColor=#1D3557;" parent="Cb4yv7zZFqui-rtnIhjn-113" vertex="1"><mxGeometry x="30" width="150" height="30" as="geometry"/></mxCell><mxCell id="Cb4yv7zZFqui-rtnIhjn-116" value="" style="shape=partialRectangle;collapsible=0;dropTarget=0;pointerEvents=0;fillColor=none;top=0;left=0;bottom=0;right=0;points=[[0,0.5],[1,0.5]];portConstraint=eastwest;strokeColor=#457B9D;fontColor=#1D3557;" parent="Cb4yv7zZFqui-rtnIhjn-94" vertex="1"><mxGeometry y="300" width="180" height="30" as="geometry"/></mxCell><mxCell id="Cb4yv7zZFqui-rtnIhjn-117" value="" style="shape=partialRectangle;connectable=0;fillColor=none;top=0;left=0;bottom=0;right=0;editable=1;overflow=hidden;strokeColor=#457B9D;fontColor=#1D3557;" parent="Cb4yv7zZFqui-rtnIhjn-116" vertex="1"><mxGeometry width="30" height="30" as="geometry"/></mxCell><mxCell id="Cb4yv7zZFqui-rtnIhjn-118" value="q_sel4" style="shape=partialRectangle;connectable=0;fillColor=none;top=0;left=0;bottom=0;right=0;align=left;spacingLeft=6;overflow=hidden;strokeColor=#457B9D;fontColor=#1D3557;" parent="Cb4yv7zZFqui-rtnIhjn-116" vertex="1"><mxGeometry x="30" width="150" height="30" as="geometry"/></mxCell><mxCell id="Cb4yv7zZFqui-rtnIhjn-119" value="" style="shape=partialRectangle;collapsible=0;dropTarget=0;pointerEvents=0;fillColor=none;top=0;left=0;bottom=0;right=0;points=[[0,0.5],[1,0.5]];portConstraint=eastwest;strokeColor=#457B9D;fontColor=#1D3557;" parent="Cb4yv7zZFqui-rtnIhjn-94" vertex="1"><mxGeometry y="330" width="180" height="30" as="geometry"/></mxCell><mxCell id="Cb4yv7zZFqui-rtnIhjn-120" value="" style="shape=partialRectangle;connectable=0;fillColor=none;top=0;left=0;bottom=0;right=0;editable=1;overflow=hidden;strokeColor=#457B9D;fontColor=#1D3557;" parent="Cb4yv7zZFqui-rtnIhjn-119" vertex="1"><mxGeometry width="30" height="30" as="geometry"/></mxCell><mxCell id="Cb4yv7zZFqui-rtnIhjn-121" value="q_sel5" style="shape=partialRectangle;connectable=0;fillColor=none;top=0;left=0;bottom=0;right=0;align=left;spacingLeft=6;overflow=hidden;strokeColor=#457B9D;fontColor=#1D3557;" parent="Cb4yv7zZFqui-rtnIhjn-119" vertex="1"><mxGeometry x="30" width="150" height="30" as="geometry"/></mxCell><mxCell id="Cb4yv7zZFqui-rtnIhjn-125" value="" style="shape=partialRectangle;collapsible=0;dropTarget=0;pointerEvents=0;fillColor=none;top=0;left=0;bottom=0;right=0;points=[[0,0.5],[1,0.5]];portConstraint=eastwest;strokeColor=#457B9D;fontColor=#1D3557;" parent="Cb4yv7zZFqui-rtnIhjn-94" vertex="1"><mxGeometry y="360" width="180" height="30" as="geometry"/></mxCell><mxCell id="Cb4yv7zZFqui-rtnIhjn-126" value="" style="shape=partialRectangle;connectable=0;fillColor=none;top=0;left=0;bottom=0;right=0;editable=1;overflow=hidden;strokeColor=#457B9D;fontColor=#1D3557;" parent="Cb4yv7zZFqui-rtnIhjn-125" vertex="1"><mxGeometry width="30" height="30" as="geometry"/></mxCell><mxCell id="Cb4yv7zZFqui-rtnIhjn-127" value="q_fig1" style="shape=partialRectangle;connectable=0;fillColor=none;top=0;left=0;bottom=0;right=0;align=left;spacingLeft=6;overflow=hidden;strokeColor=#457B9D;fontColor=#1D3557;" parent="Cb4yv7zZFqui-rtnIhjn-125" vertex="1"><mxGeometry x="30" width="150" height="30" as="geometry"/></mxCell><mxCell id="Cb4yv7zZFqui-rtnIhjn-128" value="" style="shape=partialRectangle;collapsible=0;dropTarget=0;pointerEvents=0;fillColor=none;top=0;left=0;bottom=0;right=0;points=[[0,0.5],[1,0.5]];portConstraint=eastwest;strokeColor=#457B9D;fontColor=#1D3557;" parent="Cb4yv7zZFqui-rtnIhjn-94" vertex="1"><mxGeometry y="390" width="180" height="30" as="geometry"/></mxCell><mxCell id="Cb4yv7zZFqui-rtnIhjn-129" value="" style="shape=partialRectangle;connectable=0;fillColor=none;top=0;left=0;bottom=0;right=0;editable=1;overflow=hidden;strokeColor=#457B9D;fontColor=#1D3557;" parent="Cb4yv7zZFqui-rtnIhjn-128" vertex="1"><mxGeometry width="30" height="30" as="geometry"/></mxCell><mxCell id="Cb4yv7zZFqui-rtnIhjn-130" value="q_fig2" style="shape=partialRectangle;connectable=0;fillColor=none;top=0;left=0;bottom=0;right=0;align=left;spacingLeft=6;overflow=hidden;strokeColor=#457B9D;fontColor=#1D3557;" parent="Cb4yv7zZFqui-rtnIhjn-128" vertex="1"><mxGeometry x="30" width="150" height="30" as="geometry"/></mxCell><mxCell id="Cb4yv7zZFqui-rtnIhjn-143" value="" style="shape=partialRectangle;collapsible=0;dropTarget=0;pointerEvents=0;fillColor=none;top=0;left=0;bottom=0;right=0;points=[[0,0.5],[1,0.5]];portConstraint=eastwest;strokeColor=#457B9D;fontColor=#1D3557;" parent="Cb4yv7zZFqui-rtnIhjn-94" vertex="1"><mxGeometry y="420" width="180" height="30" as="geometry"/></mxCell><mxCell id="Cb4yv7zZFqui-rtnIhjn-144" value="" style="shape=partialRectangle;connectable=0;fillColor=none;top=0;left=0;bottom=0;right=0;editable=1;overflow=hidden;strokeColor=#457B9D;fontColor=#1D3557;" parent="Cb4yv7zZFqui-rtnIhjn-143" vertex="1"><mxGeometry width="30" height="30" as="geometry"/></mxCell><mxCell id="Cb4yv7zZFqui-rtnIhjn-145" value="q_fig3" style="shape=partialRectangle;connectable=0;fillColor=none;top=0;left=0;bottom=0;right=0;align=left;spacingLeft=6;overflow=hidden;strokeColor=#457B9D;fontColor=#1D3557;" parent="Cb4yv7zZFqui-rtnIhjn-143" vertex="1"><mxGeometry x="30" width="150" height="30" as="geometry"/></mxCell><mxCell id="Cb4yv7zZFqui-rtnIhjn-149" value="" style="shape=partialRectangle;collapsible=0;dropTarget=0;pointerEvents=0;fillColor=none;top=0;left=0;bottom=0;right=0;points=[[0,0.5],[1,0.5]];portConstraint=eastwest;strokeColor=#457B9D;fontColor=#1D3557;" parent="Cb4yv7zZFqui-rtnIhjn-94" vertex="1"><mxGeometry y="450" width="180" height="30" as="geometry"/></mxCell><mxCell id="Cb4yv7zZFqui-rtnIhjn-150" value="" style="shape=partialRectangle;connectable=0;fillColor=none;top=0;left=0;bottom=0;right=0;editable=1;overflow=hidden;strokeColor=#457B9D;fontColor=#1D3557;" parent="Cb4yv7zZFqui-rtnIhjn-149" vertex="1"><mxGeometry width="30" height="30" as="geometry"/></mxCell><mxCell id="Cb4yv7zZFqui-rtnIhjn-151" value="q_fig4" style="shape=partialRectangle;connectable=0;fillColor=none;top=0;left=0;bottom=0;right=0;align=left;spacingLeft=6;overflow=hidden;strokeColor=#457B9D;fontColor=#1D3557;" parent="Cb4yv7zZFqui-rtnIhjn-149" vertex="1"><mxGeometry x="30" width="150" height="30" as="geometry"/></mxCell><mxCell id="Cb4yv7zZFqui-rtnIhjn-152" value="" style="shape=partialRectangle;collapsible=0;dropTarget=0;pointerEvents=0;fillColor=none;top=0;left=0;bottom=0;right=0;points=[[0,0.5],[1,0.5]];portConstraint=eastwest;strokeColor=#457B9D;fontColor=#1D3557;" parent="Cb4yv7zZFqui-rtnIhjn-94" vertex="1"><mxGeometry y="480" width="180" height="30" as="geometry"/></mxCell><mxCell id="Cb4yv7zZFqui-rtnIhjn-153" value="" style="shape=partialRectangle;connectable=0;fillColor=none;top=0;left=0;bottom=0;right=0;editable=1;overflow=hidden;strokeColor=#457B9D;fontColor=#1D3557;" parent="Cb4yv7zZFqui-rtnIhjn-152" vertex="1"><mxGeometry width="30" height="30" as="geometry"/></mxCell><mxCell id="Cb4yv7zZFqui-rtnIhjn-154" value="q_fig5" style="shape=partialRectangle;connectable=0;fillColor=none;top=0;left=0;bottom=0;right=0;align=left;spacingLeft=6;overflow=hidden;strokeColor=#457B9D;fontColor=#1D3557;" parent="Cb4yv7zZFqui-rtnIhjn-152" vertex="1"><mxGeometry x="30" width="150" height="30" as="geometry"/></mxCell><mxCell id="Cb4yv7zZFqui-rtnIhjn-134" value="" style="shape=partialRectangle;collapsible=0;dropTarget=0;pointerEvents=0;fillColor=none;top=0;left=0;bottom=0;right=0;points=[[0,0.5],[1,0.5]];portConstraint=eastwest;strokeColor=#457B9D;fontColor=#1D3557;" parent="Cb4yv7zZFqui-rtnIhjn-94" vertex="1"><mxGeometry y="510" width="180" height="30" as="geometry"/></mxCell><mxCell id="Cb4yv7zZFqui-rtnIhjn-135" value="" style="shape=partialRectangle;connectable=0;fillColor=none;top=0;left=0;bottom=0;right=0;editable=1;overflow=hidden;strokeColor=#457B9D;fontColor=#1D3557;" parent="Cb4yv7zZFqui-rtnIhjn-134" vertex="1"><mxGeometry width="30" height="30" as="geometry"/></mxCell><mxCell id="Cb4yv7zZFqui-rtnIhjn-136" value="q_answer" style="shape=partialRectangle;connectable=0;fillColor=none;top=0;left=0;bottom=0;right=0;align=left;spacingLeft=6;overflow=hidden;strokeColor=#457B9D;fontColor=#1D3557;" parent="Cb4yv7zZFqui-rtnIhjn-134" vertex="1"><mxGeometry x="30" width="150" height="30" as="geometry"/></mxCell><mxCell id="Cb4yv7zZFqui-rtnIhjn-137" value="" style="shape=partialRectangle;collapsible=0;dropTarget=0;pointerEvents=0;fillColor=none;top=0;left=0;bottom=0;right=0;points=[[0,0.5],[1,0.5]];portConstraint=eastwest;strokeColor=#457B9D;fontColor=#1D3557;" parent="Cb4yv7zZFqui-rtnIhjn-94" vertex="1"><mxGeometry y="540" width="180" height="30" as="geometry"/></mxCell><mxCell id="Cb4yv7zZFqui-rtnIhjn-138" value="" style="shape=partialRectangle;connectable=0;fillColor=none;top=0;left=0;bottom=0;right=0;editable=1;overflow=hidden;strokeColor=#457B9D;fontColor=#1D3557;" parent="Cb4yv7zZFqui-rtnIhjn-137" vertex="1"><mxGeometry width="30" height="30" as="geometry"/></mxCell><mxCell id="Cb4yv7zZFqui-rtnIhjn-139" value="q_explain" style="shape=partialRectangle;connectable=0;fillColor=none;top=0;left=0;bottom=0;right=0;align=left;spacingLeft=6;overflow=hidden;strokeColor=#457B9D;fontColor=#1D3557;" parent="Cb4yv7zZFqui-rtnIhjn-137" vertex="1"><mxGeometry x="30" width="150" height="30" as="geometry"/></mxCell><mxCell id="Cb4yv7zZFqui-rtnIhjn-164" value="" style="shape=partialRectangle;collapsible=0;dropTarget=0;pointerEvents=0;fillColor=none;top=0;left=0;bottom=0;right=0;points=[[0,0.5],[1,0.5]];portConstraint=eastwest;strokeColor=#457B9D;fontColor=#1D3557;" parent="Cb4yv7zZFqui-rtnIhjn-94" vertex="1"><mxGeometry y="570" width="180" height="30" as="geometry"/></mxCell><mxCell id="Cb4yv7zZFqui-rtnIhjn-165" value="" style="shape=partialRectangle;connectable=0;fillColor=none;top=0;left=0;bottom=0;right=0;editable=1;overflow=hidden;strokeColor=#457B9D;fontColor=#1D3557;" parent="Cb4yv7zZFqui-rtnIhjn-164" vertex="1"><mxGeometry width="30" height="30" as="geometry"/></mxCell><mxCell id="Cb4yv7zZFqui-rtnIhjn-166" value="q_use_count" style="shape=partialRectangle;connectable=0;fillColor=none;top=0;left=0;bottom=0;right=0;align=left;spacingLeft=6;overflow=hidden;strokeColor=#457B9D;fontColor=#1D3557;" parent="Cb4yv7zZFqui-rtnIhjn-164" vertex="1"><mxGeometry x="30" width="150" height="30" as="geometry"/></mxCell><mxCell id="Cb4yv7zZFqui-rtnIhjn-170" value="" style="shape=partialRectangle;collapsible=0;dropTarget=0;pointerEvents=0;fillColor=none;top=0;left=0;bottom=0;right=0;points=[[0,0.5],[1,0.5]];portConstraint=eastwest;strokeColor=#457B9D;fontColor=#1D3557;" parent="Cb4yv7zZFqui-rtnIhjn-94" vertex="1"><mxGeometry y="600" width="180" height="30" as="geometry"/></mxCell><mxCell id="Cb4yv7zZFqui-rtnIhjn-171" value="" style="shape=partialRectangle;connectable=0;fillColor=none;top=0;left=0;bottom=0;right=0;editable=1;overflow=hidden;strokeColor=#457B9D;fontColor=#1D3557;" parent="Cb4yv7zZFqui-rtnIhjn-170" vertex="1"><mxGeometry width="30" height="30" as="geometry"/></mxCell><mxCell id="Cb4yv7zZFqui-rtnIhjn-172" value="q_status" style="shape=partialRectangle;connectable=0;fillColor=none;top=0;left=0;bottom=0;right=0;align=left;spacingLeft=6;overflow=hidden;strokeColor=#457B9D;fontColor=#1D3557;" parent="Cb4yv7zZFqui-rtnIhjn-170" vertex="1"><mxGeometry x="30" width="150" height="30" as="geometry"/></mxCell><mxCell id="Cb4yv7zZFqui-rtnIhjn-173" value="" style="shape=partialRectangle;collapsible=0;dropTarget=0;pointerEvents=0;fillColor=none;top=0;left=0;bottom=0;right=0;points=[[0,0.5],[1,0.5]];portConstraint=eastwest;strokeColor=#457B9D;fontColor=#1D3557;" parent="Cb4yv7zZFqui-rtnIhjn-94" vertex="1"><mxGeometry y="630" width="180" height="30" as="geometry"/></mxCell><mxCell id="Cb4yv7zZFqui-rtnIhjn-174" value="" style="shape=partialRectangle;connectable=0;fillColor=none;top=0;left=0;bottom=0;right=0;editable=1;overflow=hidden;strokeColor=#457B9D;fontColor=#1D3557;" parent="Cb4yv7zZFqui-rtnIhjn-173" vertex="1"><mxGeometry width="30" height="30" as="geometry"/></mxCell><mxCell id="Cb4yv7zZFqui-rtnIhjn-175" value="created_at" style="shape=partialRectangle;connectable=0;fillColor=none;top=0;left=0;bottom=0;right=0;align=left;spacingLeft=6;overflow=hidden;strokeColor=#457B9D;fontColor=#1D3557;" parent="Cb4yv7zZFqui-rtnIhjn-173" vertex="1"><mxGeometry x="30" width="150" height="30" as="geometry"/></mxCell><mxCell id="0QHwXdA0qR0R5OQeVKJc-17" value="" style="shape=partialRectangle;collapsible=0;dropTarget=0;pointerEvents=0;fillColor=none;top=0;left=0;bottom=0;right=0;points=[[0,0.5],[1,0.5]];portConstraint=eastwest;strokeColor=#457B9D;fontColor=#1D3557;" parent="Cb4yv7zZFqui-rtnIhjn-94" vertex="1"><mxGeometry y="660" width="180" height="30" as="geometry"/></mxCell><mxCell id="0QHwXdA0qR0R5OQeVKJc-18" value="" style="shape=partialRectangle;connectable=0;fillColor=none;top=0;left=0;bottom=0;right=0;editable=1;overflow=hidden;strokeColor=#457B9D;fontColor=#1D3557;" parent="0QHwXdA0qR0R5OQeVKJc-17" vertex="1"><mxGeometry width="30" height="30" as="geometry"/></mxCell><mxCell id="0QHwXdA0qR0R5OQeVKJc-19" value="updated_at" style="shape=partialRectangle;connectable=0;fillColor=none;top=0;left=0;bottom=0;right=0;align=left;spacingLeft=6;overflow=hidden;strokeColor=#457B9D;fontColor=#1D3557;" parent="0QHwXdA0qR0R5OQeVKJc-17" vertex="1"><mxGeometry x="30" width="150" height="30" as="geometry"/></mxCell><mxCell id="Cb4yv7zZFqui-rtnIhjn-176" value="" style="shape=partialRectangle;collapsible=0;dropTarget=0;pointerEvents=0;fillColor=none;top=0;left=0;bottom=0;right=0;points=[[0,0.5],[1,0.5]];portConstraint=eastwest;strokeColor=#457B9D;fontColor=#1D3557;" parent="Cb4yv7zZFqui-rtnIhjn-94" vertex="1"><mxGeometry y="690" width="180" height="30" as="geometry"/></mxCell><mxCell id="Cb4yv7zZFqui-rtnIhjn-177" value="FK" style="shape=partialRectangle;connectable=0;fillColor=none;top=0;left=0;bottom=0;right=0;fontStyle=0;overflow=hidden;strokeColor=#457B9D;fontColor=#1D3557;" parent="Cb4yv7zZFqui-rtnIhjn-176" vertex="1"><mxGeometry width="30" height="30" as="geometry"/></mxCell><mxCell id="Cb4yv7zZFqui-rtnIhjn-178" value="sub_id" style="shape=partialRectangle;connectable=0;fillColor=none;top=0;left=0;bottom=0;right=0;align=left;spacingLeft=6;fontStyle=0;overflow=hidden;strokeColor=#457B9D;fontColor=#1D3557;" parent="Cb4yv7zZFqui-rtnIhjn-176" vertex="1"><mxGeometry x="30" width="150" height="30" as="geometry"/></mxCell><mxCell id="Cb4yv7zZFqui-rtnIhjn-179" style="edgeStyle=orthogonalEdgeStyle;rounded=0;orthogonalLoop=1;jettySize=auto;html=1;entryX=1;entryY=0.5;entryDx=0;entryDy=0;strokeColor=#457B9D;fontColor=#1D3557;labelBackgroundColor=#F1FAEE;" parent="1" source="Cb4yv7zZFqui-rtnIhjn-176" target="Cb4yv7zZFqui-rtnIhjn-40" edge="1"><mxGeometry relative="1" as="geometry"/></mxCell><mxCell id="Cb4yv7zZFqui-rtnIhjn-180" value="Role =&amp;nbsp; [Student, Teacher, Admin]" style="text;html=1;strokeColor=none;fillColor=none;align=center;verticalAlign=middle;whiteSpace=wrap;rounded=0;fontColor=#1D3557;" parent="1" vertex="1"><mxGeometry x="70" y="440" width="200" height="20" as="geometry"/></mxCell><mxCell id="Cb4yv7zZFqui-rtnIhjn-181" value="tb_score" style="shape=table;startSize=30;container=1;collapsible=1;childLayout=tableLayout;fixedRows=1;rowLines=0;fontStyle=1;align=center;resizeLast=1;fillColor=#A8DADC;strokeColor=#457B9D;fontColor=#1D3557;" parent="1" vertex="1"><mxGeometry x="540" y="30" width="180" height="160" as="geometry"/></mxCell><mxCell id="Cb4yv7zZFqui-rtnIhjn-185" value="" style="shape=partialRectangle;collapsible=0;dropTarget=0;pointerEvents=0;fillColor=none;top=0;left=0;bottom=0;right=0;points=[[0,0.5],[1,0.5]];portConstraint=eastwest;strokeColor=#457B9D;fontColor=#1D3557;" parent="Cb4yv7zZFqui-rtnIhjn-181" vertex="1"><mxGeometry y="30" width="180" height="30" as="geometry"/></mxCell><mxCell id="Cb4yv7zZFqui-rtnIhjn-186" value="" style="shape=partialRectangle;connectable=0;fillColor=none;top=0;left=0;bottom=0;right=0;editable=1;overflow=hidden;strokeColor=#457B9D;fontColor=#1D3557;" parent="Cb4yv7zZFqui-rtnIhjn-185" vertex="1"><mxGeometry width="30" height="30" as="geometry"/></mxCell><mxCell id="Cb4yv7zZFqui-rtnIhjn-187" value="sc_choice" style="shape=partialRectangle;connectable=0;fillColor=none;top=0;left=0;bottom=0;right=0;align=left;spacingLeft=6;overflow=hidden;strokeColor=#457B9D;fontColor=#1D3557;" parent="Cb4yv7zZFqui-rtnIhjn-185" vertex="1"><mxGeometry x="30" width="150" height="30" as="geometry"/></mxCell><mxCell id="Cb4yv7zZFqui-rtnIhjn-188" value="" style="shape=partialRectangle;collapsible=0;dropTarget=0;pointerEvents=0;fillColor=none;top=0;left=0;bottom=0;right=0;points=[[0,0.5],[1,0.5]];portConstraint=eastwest;strokeColor=#457B9D;fontColor=#1D3557;" parent="Cb4yv7zZFqui-rtnIhjn-181" vertex="1"><mxGeometry y="60" width="180" height="30" as="geometry"/></mxCell><mxCell id="Cb4yv7zZFqui-rtnIhjn-189" value="" style="shape=partialRectangle;connectable=0;fillColor=none;top=0;left=0;bottom=0;right=0;editable=1;overflow=hidden;strokeColor=#457B9D;fontColor=#1D3557;" parent="Cb4yv7zZFqui-rtnIhjn-188" vertex="1"><mxGeometry width="30" height="30" as="geometry"/></mxCell><mxCell id="Cb4yv7zZFqui-rtnIhjn-190" value="sc_answer" style="shape=partialRectangle;connectable=0;fillColor=none;top=0;left=0;bottom=0;right=0;align=left;spacingLeft=6;overflow=hidden;strokeColor=#457B9D;fontColor=#1D3557;" parent="Cb4yv7zZFqui-rtnIhjn-188" vertex="1"><mxGeometry x="30" width="150" height="30" as="geometry"/></mxCell><mxCell id="Cb4yv7zZFqui-rtnIhjn-236" value="" style="shape=partialRectangle;collapsible=0;dropTarget=0;pointerEvents=0;fillColor=none;top=0;left=0;bottom=0;right=0;points=[[0,0.5],[1,0.5]];portConstraint=eastwest;strokeColor=#457B9D;fontColor=#1D3557;" parent="Cb4yv7zZFqui-rtnIhjn-181" vertex="1"><mxGeometry y="90" width="180" height="30" as="geometry"/></mxCell><mxCell id="Cb4yv7zZFqui-rtnIhjn-237" value="FK" style="shape=partialRectangle;connectable=0;fillColor=none;top=0;left=0;bottom=0;right=0;fontStyle=0;overflow=hidden;strokeColor=#457B9D;fontColor=#1D3557;" parent="Cb4yv7zZFqui-rtnIhjn-236" vertex="1"><mxGeometry width="30" height="30" as="geometry"/></mxCell><mxCell id="Cb4yv7zZFqui-rtnIhjn-238" value="test_id" style="shape=partialRectangle;connectable=0;fillColor=none;top=0;left=0;bottom=0;right=0;align=left;spacingLeft=6;fontStyle=0;overflow=hidden;strokeColor=#457B9D;fontColor=#1D3557;" parent="Cb4yv7zZFqui-rtnIhjn-236" vertex="1"><mxGeometry x="30" width="150" height="30" as="geometry"/></mxCell><mxCell id="Cb4yv7zZFqui-rtnIhjn-197" value="" style="shape=partialRectangle;collapsible=0;dropTarget=0;pointerEvents=0;fillColor=none;top=0;left=0;bottom=0;right=0;points=[[0,0.5],[1,0.5]];portConstraint=eastwest;strokeColor=#457B9D;fontColor=#1D3557;" parent="Cb4yv7zZFqui-rtnIhjn-181" vertex="1"><mxGeometry y="120" width="180" height="30" as="geometry"/></mxCell><mxCell id="Cb4yv7zZFqui-rtnIhjn-198" value="FK" style="shape=partialRectangle;connectable=0;fillColor=none;top=0;left=0;bottom=0;right=0;fontStyle=0;overflow=hidden;strokeColor=#457B9D;fontColor=#1D3557;" parent="Cb4yv7zZFqui-rtnIhjn-197" vertex="1"><mxGeometry width="30" height="30" as="geometry"/></mxCell><mxCell id="Cb4yv7zZFqui-rtnIhjn-199" value="q_id" style="shape=partialRectangle;connectable=0;fillColor=none;top=0;left=0;bottom=0;right=0;align=left;spacingLeft=6;fontStyle=0;overflow=hidden;strokeColor=#457B9D;fontColor=#1D3557;" parent="Cb4yv7zZFqui-rtnIhjn-197" vertex="1"><mxGeometry x="30" width="150" height="30" as="geometry"/></mxCell><mxCell id="Cb4yv7zZFqui-rtnIhjn-220" value="tb_test_result" style="shape=table;startSize=30;container=1;collapsible=1;childLayout=tableLayout;fixedRows=1;rowLines=0;fontStyle=1;align=center;resizeLast=1;fillColor=#A8DADC;strokeColor=#457B9D;fontColor=#1D3557;" parent="1" vertex="1"><mxGeometry x="320" y="30" width="180" height="280" as="geometry"/></mxCell><mxCell id="Cb4yv7zZFqui-rtnIhjn-221" value="" style="shape=partialRectangle;collapsible=0;dropTarget=0;pointerEvents=0;fillColor=none;top=0;left=0;bottom=1;right=0;points=[[0,0.5],[1,0.5]];portConstraint=eastwest;strokeColor=#457B9D;fontColor=#1D3557;" parent="Cb4yv7zZFqui-rtnIhjn-220" vertex="1"><mxGeometry y="30" width="180" height="30" as="geometry"/></mxCell><mxCell id="Cb4yv7zZFqui-rtnIhjn-222" value="PK" style="shape=partialRectangle;connectable=0;fillColor=none;top=0;left=0;bottom=0;right=0;fontStyle=1;overflow=hidden;strokeColor=#457B9D;fontColor=#1D3557;" parent="Cb4yv7zZFqui-rtnIhjn-221" vertex="1"><mxGeometry width="30" height="30" as="geometry"/></mxCell><mxCell id="Cb4yv7zZFqui-rtnIhjn-223" value="test_id" style="shape=partialRectangle;connectable=0;fillColor=none;top=0;left=0;bottom=0;right=0;align=left;spacingLeft=6;fontStyle=5;overflow=hidden;strokeColor=#457B9D;fontColor=#1D3557;" parent="Cb4yv7zZFqui-rtnIhjn-221" vertex="1"><mxGeometry x="30" width="150" height="30" as="geometry"/></mxCell><mxCell id="Cb4yv7zZFqui-rtnIhjn-224" value="" style="shape=partialRectangle;collapsible=0;dropTarget=0;pointerEvents=0;fillColor=none;top=0;left=0;bottom=0;right=0;points=[[0,0.5],[1,0.5]];portConstraint=eastwest;strokeColor=#457B9D;fontColor=#1D3557;" parent="Cb4yv7zZFqui-rtnIhjn-220" vertex="1"><mxGeometry y="60" width="180" height="30" as="geometry"/></mxCell><mxCell id="Cb4yv7zZFqui-rtnIhjn-225" value="" style="shape=partialRectangle;connectable=0;fillColor=none;top=0;left=0;bottom=0;right=0;editable=1;overflow=hidden;strokeColor=#457B9D;fontColor=#1D3557;" parent="Cb4yv7zZFqui-rtnIhjn-224" vertex="1"><mxGeometry width="30" height="30" as="geometry"/></mxCell><mxCell id="Cb4yv7zZFqui-rtnIhjn-226" value="test_date" style="shape=partialRectangle;connectable=0;fillColor=none;top=0;left=0;bottom=0;right=0;align=left;spacingLeft=6;overflow=hidden;strokeColor=#457B9D;fontColor=#1D3557;" parent="Cb4yv7zZFqui-rtnIhjn-224" vertex="1"><mxGeometry x="30" width="150" height="30" as="geometry"/></mxCell><mxCell id="Cb4yv7zZFqui-rtnIhjn-227" value="" style="shape=partialRectangle;collapsible=0;dropTarget=0;pointerEvents=0;fillColor=none;top=0;left=0;bottom=0;right=0;points=[[0,0.5],[1,0.5]];portConstraint=eastwest;strokeColor=#457B9D;fontColor=#1D3557;" parent="Cb4yv7zZFqui-rtnIhjn-220" vertex="1"><mxGeometry y="90" width="180" height="30" as="geometry"/></mxCell><mxCell id="Cb4yv7zZFqui-rtnIhjn-228" value="" style="shape=partialRectangle;connectable=0;fillColor=none;top=0;left=0;bottom=0;right=0;editable=1;overflow=hidden;strokeColor=#457B9D;fontColor=#1D3557;" parent="Cb4yv7zZFqui-rtnIhjn-227" vertex="1"><mxGeometry width="30" height="30" as="geometry"/></mxCell><mxCell id="Cb4yv7zZFqui-rtnIhjn-229" value="test_minute" style="shape=partialRectangle;connectable=0;fillColor=none;top=0;left=0;bottom=0;right=0;align=left;spacingLeft=6;overflow=hidden;strokeColor=#457B9D;fontColor=#1D3557;" parent="Cb4yv7zZFqui-rtnIhjn-227" vertex="1"><mxGeometry x="30" width="150" height="30" as="geometry"/></mxCell><mxCell id="Cb4yv7zZFqui-rtnIhjn-230" value="" style="shape=partialRectangle;collapsible=0;dropTarget=0;pointerEvents=0;fillColor=none;top=0;left=0;bottom=0;right=0;points=[[0,0.5],[1,0.5]];portConstraint=eastwest;strokeColor=#457B9D;fontColor=#1D3557;" parent="Cb4yv7zZFqui-rtnIhjn-220" vertex="1"><mxGeometry y="120" width="180" height="30" as="geometry"/></mxCell><mxCell id="Cb4yv7zZFqui-rtnIhjn-231" value="" style="shape=partialRectangle;connectable=0;fillColor=none;top=0;left=0;bottom=0;right=0;editable=1;overflow=hidden;strokeColor=#457B9D;fontColor=#1D3557;" parent="Cb4yv7zZFqui-rtnIhjn-230" vertex="1"><mxGeometry width="30" height="30" as="geometry"/></mxCell><mxCell id="Cb4yv7zZFqui-rtnIhjn-232" value="test_count_question" style="shape=partialRectangle;connectable=0;fillColor=none;top=0;left=0;bottom=0;right=0;align=left;spacingLeft=6;overflow=hidden;strokeColor=#457B9D;fontColor=#1D3557;" parent="Cb4yv7zZFqui-rtnIhjn-230" vertex="1"><mxGeometry x="30" width="150" height="30" as="geometry"/></mxCell><mxCell id="Cb4yv7zZFqui-rtnIhjn-233" value="" style="shape=partialRectangle;collapsible=0;dropTarget=0;pointerEvents=0;fillColor=none;top=0;left=0;bottom=0;right=0;points=[[0,0.5],[1,0.5]];portConstraint=eastwest;strokeColor=#457B9D;fontColor=#1D3557;" parent="Cb4yv7zZFqui-rtnIhjn-220" vertex="1"><mxGeometry y="150" width="180" height="30" as="geometry"/></mxCell><mxCell id="Cb4yv7zZFqui-rtnIhjn-234" value="" style="shape=partialRectangle;connectable=0;fillColor=none;top=0;left=0;bottom=0;right=0;editable=1;overflow=hidden;strokeColor=#457B9D;fontColor=#1D3557;" parent="Cb4yv7zZFqui-rtnIhjn-233" vertex="1"><mxGeometry width="30" height="30" as="geometry"/></mxCell><mxCell id="Cb4yv7zZFqui-rtnIhjn-235" value="all_question" style="shape=partialRectangle;connectable=0;fillColor=none;top=0;left=0;bottom=0;right=0;align=left;spacingLeft=6;overflow=hidden;strokeColor=#457B9D;fontColor=#1D3557;" parent="Cb4yv7zZFqui-rtnIhjn-233" vertex="1"><mxGeometry x="30" width="150" height="30" as="geometry"/></mxCell><mxCell id="0QHwXdA0qR0R5OQeVKJc-24" value="" style="shape=partialRectangle;collapsible=0;dropTarget=0;pointerEvents=0;fillColor=none;top=0;left=0;bottom=0;right=0;points=[[0,0.5],[1,0.5]];portConstraint=eastwest;strokeColor=#457B9D;fontColor=#1D3557;" parent="Cb4yv7zZFqui-rtnIhjn-220" vertex="1"><mxGeometry y="180" width="180" height="30" as="geometry"/></mxCell><mxCell id="0QHwXdA0qR0R5OQeVKJc-25" value="" style="shape=partialRectangle;connectable=0;fillColor=none;top=0;left=0;bottom=0;right=0;editable=1;overflow=hidden;strokeColor=#457B9D;fontColor=#1D3557;" parent="0QHwXdA0qR0R5OQeVKJc-24" vertex="1"><mxGeometry width="30" height="30" as="geometry"/></mxCell><mxCell id="0QHwXdA0qR0R5OQeVKJc-26" value="created_at" style="shape=partialRectangle;connectable=0;fillColor=none;top=0;left=0;bottom=0;right=0;align=left;spacingLeft=6;overflow=hidden;strokeColor=#457B9D;fontColor=#1D3557;" parent="0QHwXdA0qR0R5OQeVKJc-24" vertex="1"><mxGeometry x="30" width="150" height="30" as="geometry"/></mxCell><mxCell id="Cb4yv7zZFqui-rtnIhjn-214" value="" style="shape=partialRectangle;collapsible=0;dropTarget=0;pointerEvents=0;fillColor=none;top=0;left=0;bottom=0;right=0;points=[[0,0.5],[1,0.5]];portConstraint=eastwest;strokeColor=#457B9D;fontColor=#1D3557;" parent="Cb4yv7zZFqui-rtnIhjn-220" vertex="1"><mxGeometry y="210" width="180" height="30" as="geometry"/></mxCell><mxCell id="Cb4yv7zZFqui-rtnIhjn-215" value="FK" style="shape=partialRectangle;connectable=0;fillColor=none;top=0;left=0;bottom=0;right=0;fontStyle=0;overflow=hidden;strokeColor=#457B9D;fontColor=#1D3557;" parent="Cb4yv7zZFqui-rtnIhjn-214" vertex="1"><mxGeometry width="30" height="30" as="geometry"/></mxCell><mxCell id="Cb4yv7zZFqui-rtnIhjn-216" value="user_id" style="shape=partialRectangle;connectable=0;fillColor=none;top=0;left=0;bottom=0;right=0;align=left;spacingLeft=6;fontStyle=0;overflow=hidden;strokeColor=#457B9D;fontColor=#1D3557;" parent="Cb4yv7zZFqui-rtnIhjn-214" vertex="1"><mxGeometry x="30" width="150" height="30" as="geometry"/></mxCell><mxCell id="Cb4yv7zZFqui-rtnIhjn-206" value="" style="shape=partialRectangle;collapsible=0;dropTarget=0;pointerEvents=0;fillColor=none;top=0;left=0;bottom=0;right=0;points=[[0,0.5],[1,0.5]];portConstraint=eastwest;strokeColor=#457B9D;fontColor=#1D3557;" parent="Cb4yv7zZFqui-rtnIhjn-220" vertex="1"><mxGeometry y="240" width="180" height="30" as="geometry"/></mxCell><mxCell id="Cb4yv7zZFqui-rtnIhjn-207" value="FK" style="shape=partialRectangle;connectable=0;fillColor=none;top=0;left=0;bottom=0;right=0;fontStyle=0;overflow=hidden;strokeColor=#457B9D;fontColor=#1D3557;" parent="Cb4yv7zZFqui-rtnIhjn-206" vertex="1"><mxGeometry width="30" height="30" as="geometry"/></mxCell><mxCell id="Cb4yv7zZFqui-rtnIhjn-208" value="sub_id" style="shape=partialRectangle;connectable=0;fillColor=none;top=0;left=0;bottom=0;right=0;align=left;spacingLeft=6;fontStyle=0;overflow=hidden;strokeColor=#457B9D;fontColor=#1D3557;" parent="Cb4yv7zZFqui-rtnIhjn-206" vertex="1"><mxGeometry x="30" width="150" height="30" as="geometry"/></mxCell><mxCell id="GuEDAPWdOgB3gn5zNmbN-5" style="edgeStyle=elbowEdgeStyle;rounded=0;orthogonalLoop=1;jettySize=auto;html=1;exitX=0;exitY=0.5;exitDx=0;exitDy=0;strokeColor=#457B9D;fontColor=#1D3557;labelBackgroundColor=#F1FAEE;" parent="1" source="GuEDAPWdOgB3gn5zNmbN-1" edge="1"><mxGeometry relative="1" as="geometry"><Array as="points"><mxPoint x="280" y="420"/><mxPoint x="60" y="440"/><mxPoint x="40" y="440"/><mxPoint x="50" y="365"/></Array><mxPoint x="260" y="195" as="targetPoint"/></mxGeometry></mxCell><mxCell id="GuEDAPWdOgB3gn5zNmbN-6" style="edgeStyle=elbowEdgeStyle;rounded=0;orthogonalLoop=1;jettySize=auto;html=1;entryX=1;entryY=0.5;entryDx=0;entryDy=0;strokeColor=#457B9D;fontColor=#1D3557;labelBackgroundColor=#F1FAEE;" parent="1" source="Cb4yv7zZFqui-rtnIhjn-82" target="Cb4yv7zZFqui-rtnIhjn-27" edge="1"><mxGeometry relative="1" as="geometry"/></mxCell><mxCell id="GuEDAPWdOgB3gn5zNmbN-7" style="edgeStyle=elbowEdgeStyle;rounded=0;orthogonalLoop=1;jettySize=auto;html=1;entryX=1;entryY=0.5;entryDx=0;entryDy=0;exitX=0;exitY=0.5;exitDx=0;exitDy=0;strokeColor=#457B9D;fontColor=#1D3557;labelBackgroundColor=#F1FAEE;" parent="1" source="Cb4yv7zZFqui-rtnIhjn-214" target="Cb4yv7zZFqui-rtnIhjn-2" edge="1"><mxGeometry relative="1" as="geometry"><Array as="points"><mxPoint x="300" y="220"/><mxPoint x="290" y="230"/></Array></mxGeometry></mxCell><mxCell id="5TDoaU80JOtnixukt0CV-1" style="edgeStyle=orthogonalEdgeStyle;rounded=0;orthogonalLoop=1;jettySize=auto;html=1;entryX=0;entryY=0.5;entryDx=0;entryDy=0;strokeColor=#457B9D;fontColor=#1D3557;labelBackgroundColor=#F1FAEE;" parent="1" source="Cb4yv7zZFqui-rtnIhjn-197" target="Cb4yv7zZFqui-rtnIhjn-95" edge="1"><mxGeometry relative="1" as="geometry"/></mxCell><mxCell id="5TDoaU80JOtnixukt0CV-2" style="edgeStyle=orthogonalEdgeStyle;rounded=0;orthogonalLoop=1;jettySize=auto;html=1;entryX=0;entryY=0.5;entryDx=0;entryDy=0;strokeColor=#457B9D;fontColor=#1D3557;labelBackgroundColor=#F1FAEE;" parent="1" source="Cb4yv7zZFqui-rtnIhjn-206" target="Cb4yv7zZFqui-rtnIhjn-40" edge="1"><mxGeometry relative="1" as="geometry"/></mxCell><mxCell id="5TDoaU80JOtnixukt0CV-3" style="edgeStyle=orthogonalEdgeStyle;rounded=0;orthogonalLoop=1;jettySize=auto;html=1;entryX=1;entryY=0.5;entryDx=0;entryDy=0;strokeColor=#457B9D;fontColor=#1D3557;labelBackgroundColor=#F1FAEE;" parent="1" source="Cb4yv7zZFqui-rtnIhjn-236" target="Cb4yv7zZFqui-rtnIhjn-221" edge="1"><mxGeometry relative="1" as="geometry"/></mxCell></root></mxGraphModel></diagram></mxfile>